<?xml version="1.0" encoding="utf-8"?>
<!-- Generator: Adobe Illustrator 25.3.0, SVG Export Plug-In . SVG Version: 6.00 Build 0)  -->
<svg version="1.1" id="Layer_1" xmlns="http://www.w3.org/2000/svg" xmlns:xlink="http://www.w3.org/1999/xlink" x="0px" y="0px"
	 viewBox="0 0 150 60" style="enable-background:new 0 0 150 60;" xml:space="preserve">
<g>
	<path d="M53.6,26.3v-0.2c3.1-0.7,7.3-2.7,7.3-7.6c0-2.4-1.1-4.6-3-5.9c-1.8-1.2-4-1.8-8-1.8H36v1.5c4.1,0.3,4.4,0.6,4.4,5v20.4
		c0,4.3-0.3,4.7-4.8,5v1.5h12.1c4.2,0,7.8-0.6,10.5-2c3.1-1.7,5-4.4,5-7.8C63.1,29.3,59,27,53.6,26.3z M45.3,15.7
		c0-1.6,0.1-2.2,0.6-2.5c0.5-0.3,1.6-0.6,2.9-0.6c4.8,0,6.8,2.9,6.8,6.6c0,4.2-2.4,6.5-8.1,6.5h-2.3V15.7z M49.6,42.4
		c-3.3,0-4.3-0.9-4.3-4.8V27.4h2.2c6.4,0,10,2.4,10,7.5C57.4,40.3,53.7,42.4,49.6,42.4z"/>
</g>
<g>
	<path d="M71.6,16c0,0.2-0.1,0.4-0.1,0.6l0.1,0.3C71.6,16.6,71.6,16.3,71.6,16z"/>
	<path d="M76.5,28.5L76.5,28.5L76.5,28.5C76.5,28.5,76.5,28.5,76.5,28.5z"/>
	<path d="M98.8,16.3l1-1.8l0-0.1l-2.9,0h-0.2c-2.6,0-4.3-0.5-6-1.1c-3-1.2-5.6-2.1-7.6-2.5c-1.6-0.4-2.9-0.5-3.9-0.5
		c-1.2,0-2.2,0.2-3.2,0.5h-8.9v1.6c3.6,0.3,4.3,0.5,4.5,3.6c0,0.3,0,0.6,0,0.9c0,0.1,0,0.3,0,0.5v20.4c0,4.4-0.5,4.7-5,5v1.5h13.1
		c3.1,0,6-0.3,8.6-1c2.8-0.7,5.2-1.8,7.3-3.3c4.1-3,6.6-7.6,6.6-13.7C102.3,22.1,100.9,18.7,98.8,16.3z M76.6,16.3
		c0-0.6,0-1.1,0-1.4c0.6-0.2,1.3-0.3,2.1-0.3c3.2,0,5.7,0.5,9.8,2l0,0.1c-4.8,1.1-9.1,3.6-12,7V16.3z M84,42.3
		c-0.6,0-1.1,0.1-1.7,0.1c-3.9,0-5.7-1-5.7-5v-8.8l-0.1,0c0,0,0,0,0.1,0v-0.2c2-3.1,6.3-5.8,11.8-7.9c1.1-0.4,3.7-1.2,6.1-1.7
		c0.6,0.9,1.1,1.9,1.4,3c0,0.1,0.1,0.2,0.1,0.3c0.3,1,0.6,2.2,0.7,3.3c0,0,0,0,0,0.1c0,0.6,0.1,1.1,0.1,1.7
		C96.7,34.7,92.6,41.5,84,42.3z"/>
</g>
<g>
	<path d="M65.9,22.6c1.4,1.1,2.8,2.3,4.2,3.8c-0.8,1.3-1.7,2.4-2.9,3.4c-1.4-1.3-2.7-2.4-4.1-3.6C64,24.9,64.9,23.7,65.9,22.6z"/>
</g>
<g>
	<path d="M48.9,47.6c1.4,1.1,2.8,2.3,4.2,3.8c-0.8,1.3-1.7,2.4-2.9,3.4c-1.4-1.3-2.7-2.4-4.1-3.6C47,49.9,48,48.7,48.9,47.6z"/>
</g>
</svg>